ffmpeg started on 2025-05-06 at 09:32:20
Report written to "D:\Convert\FFMetrics\reports\ssim_report-6.txt"
Log level: 32
Command line:
ffmpeg -hide_banner -nostdin -i "G:\\\xc0\xed\xe8\xec\xe5\\\xce\xed\xe3\xee\xe8\xed\xe3\xe8\\!_35_\xcb\xe5\xf2\xee_2024\\JamClub\\\xc1\xe0\xf1\xed\xff\\[JAM_CLUB]_The_Fable_06_[1080p][RUS][DUB]_HEVC.mkv" -i "G:\\\xc0\xed\xe8\xec\xe5\\\xce\xed\xe3\xee\xe8\xed\xe3\xe8\\!_35_\xcb\xe5\xf2\xee_2024\\JamClub\\\xc1\xe0\xf1\xed\xff\\[JAM_CLUB]_The_Fable_06_[1080p][RUS][DUB].mp4" -lavfi "[0:v]settb=AVTB,setpts=PTS-STARTPTS,format=pix_fmts=yuv420p10,fps=24000/1001,scale=1920:1080:flags=bicubic[main];[1:v]settb=AVTB,setpts=PTS-STARTPTS,format=pix_fmts=yuv420p,fps=24000/1001,scale=1920:1080:flags=bicubic[ref];[main][ref]ssim=eof_action=endall:stats_file='D\\:/Convert/FFMetrics/logs/ssim_logfile-6.txt'" -f null -
Input #0, matroska,webm, from 'G:\Аниме\Онгоинги\!_35_Лето_2024\JamClub\Басня\[JAM_CLUB]_The_Fable_06_[1080p][RUS][DUB]_HEVC.mkv':
  Metadata:
    COMPATIBLE_BRANDS: isomiso2avc1mp41
    MAJOR_BRAND     : isom
    MINOR_VERSION   : 512
    ENCODER         : Lavf61.7.100
  Duration: 00:23:14.33, start: -0.001000, bitrate: 969 kb/s
  Stream #0:0: Video: hevc (Main 10), yuv420p10le(tv, bt709, progressive), 1920x1080 [SAR 1:1 DAR 16:9], 23.98 fps, 23.98 tbr, 1k tbn (default)
      Metadata:
        HANDLER_NAME    : VideoHandler
        VENDOR_ID       : [0][0][0][0]
        ENCODER         : Lavc61.19.100 libx265
        BPS             : 770429
        DURATION        : 00:23:14.184708333
        NUMBER_OF_FRAMES: 33427
        NUMBER_OF_BYTES : 134265102
        _STATISTICS_WRITING_APP: mkvpropedit v66.0.0 ('Josie') 64-bit
        _STATISTICS_WRITING_DATE_UTC: 2025-05-05 13:09:54
        _STATISTICS_TAGS: BPS DURATION NUMBER_OF_FRAMES NUMBER_OF_BYTES
  Stream #0:1(eng): Audio: aac (LC), 48000 Hz, stereo, fltp (default)
      Metadata:
        HANDLER_NAME    : SoundHandler
        VENDOR_ID       : [0][0][0][0]
        ENCODER         : Lavc61.19.100 aac
        BPS             : 195411
        DURATION        : 00:23:14.285000000
        NUMBER_OF_FRAMES: 65358
        NUMBER_OF_BYTES : 34057405
        _STATISTICS_WRITING_APP: mkvpropedit v66.0.0 ('Josie') 64-bit
        _STATISTICS_WRITING_DATE_UTC: 2025-05-05 13:09:54
        _STATISTICS_TAGS: BPS DURATION NUMBER_OF_FRAMES NUMBER_OF_BYTES
Input #1, mov,mp4,m4a,3gp,3g2,mj2, from 'G:\Аниме\Онгоинги\!_35_Лето_2024\JamClub\Басня\[JAM_CLUB]_The_Fable_06_[1080p][RUS][DUB].mp4':
  Metadata:
    major_brand     : isom
    minor_version   : 512
    compatible_brands: isomiso2avc1mp41
    encoder         : Lavf60.16.100
  Duration: 00:23:14.31, start: 0.000000, bitrate: 3683 kb/s
  Stream #1:0[0x1](und): Video: h264 (High) (avc1 / 0x31637661), yuv420p(progressive), 1920x1080, 3485 kb/s, 23.98 fps, 23.98 tbr, 90k tbn (default)
      Metadata:
        handler_name    : VideoHandler
        vendor_id       : [0][0][0][0]
  Stream #1:1[0x2](eng): Audio: aac (LC) (mp4a / 0x6134706D), 48000 Hz, stereo, fltp, 191 kb/s (default)
      Metadata:
        handler_name    : SoundHandler
        vendor_id       : [0][0][0][0]
Stream mapping:
  Stream #0:0 (hevc) -> settb:default
  Stream #1:0 (h264) -> settb:default
  ssim:default -> Stream #0:0 (wrapped_avframe)
  Stream #0:1 -> #0:1 (aac (native) -> pcm_s16le (native))
Output #0, null, to 'pipe:':
  Metadata:
    COMPATIBLE_BRANDS: isomiso2avc1mp41
    MAJOR_BRAND     : isom
    MINOR_VERSION   : 512
    encoder         : Lavf61.7.100
  Stream #0:0: Video: wrapped_avframe, yuv420p10le(tv, bt709, progressive), 1920x1080 [SAR 1:1 DAR 16:9], q=2-31, 200 kb/s, 23.98 fps, 23.98 tbn
      Metadata:
        encoder         : Lavc61.19.100 wrapped_avframe
  Stream #0:1(eng): Audio: pcm_s16le, 48000 Hz, stereo, s16, 1536 kb/s (default)
      Metadata:
        HANDLER_NAME    : SoundHandler
        VENDOR_ID       : [0][0][0][0]
        _STATISTICS_TAGS: BPS DURATION NUMBER_OF_FRAMES NUMBER_OF_BYTES
        BPS             : 195411
        DURATION        : 00:23:14.285000000
        NUMBER_OF_FRAMES: 65358
        NUMBER_OF_BYTES : 34057405
        _STATISTICS_WRITING_APP: mkvpropedit v66.0.0 ('Josie') 64-bit
        _STATISTICS_WRITING_DATE_UTC: 2025-05-05 13:09:54
        encoder         : Lavc61.19.100 pcm_s16le
frame=  114 fps=0.0 q=-0.0 size=N/A time=00:00:04.75 bitrate=N/A speed=9.25x    frame=  276 fps=266 q=-0.0 size=N/A time=00:00:11.51 bitrate=N/A speed=11.1x    frame=  464 fps=300 q=-0.0 size=N/A time=00:00:19.35 bitrate=N/A speed=12.5x    frame=  719 fps=348 q=-0.0 size=N/A time=00:00:29.98 bitrate=N/A speed=14.5x    frame=  960 fps=373 q=-0.0 size=N/A time=00:00:40.04 bitrate=N/A speed=15.5x    frame= 1216 fps=393 q=-0.0 size=N/A time=00:00:50.71 bitrate=N/A speed=16.4x    frame= 1446 fps=399 q=-0.0 size=N/A time=00:01:00.31 bitrate=N/A speed=16.7x    frame= 1674 fps=404 q=-0.0 size=N/A time=00:01:09.81 bitrate=N/A speed=16.9x    frame= 1880 fps=404 q=-0.0 size=N/A time=00:01:18.41 bitrate=N/A speed=16.9x    frame= 2096 fps=405 q=-0.0 size=N/A time=00:01:27.42 bitrate=N/A speed=16.9x    frame= 2348 fps=412 q=-0.0 size=N/A time=00:01:37.93 bitrate=N/A speed=17.2x    frame= 2598 fps=418 q=-0.0 size=N/A time=00:01:48.35 bitrate=N/A speed=17.4x    frame= 2845 fps=422 q=-0.0 size=N/A time=00:01:58.66 bitrate=N/A speed=17.6x    frame= 3076 fps=425 q=-0.0 size=N/A time=00:02:08.29 bitrate=N/A speed=17.7x    frame= 3325 fps=428 q=-0.0 size=N/A time=00:02:18.68 bitrate=N/A speed=17.9x    frame= 3561 fps=430 q=-0.0 size=N/A time=00:02:28.52 bitrate=N/A speed=17.9x    frame= 3809 fps=433 q=-0.0 size=N/A time=00:02:38.86 bitrate=N/A speed=18.1x    frame= 4083 fps=438 q=-0.0 size=N/A time=00:02:50.29 bitrate=N/A speed=18.3x    frame= 4335 fps=441 q=-0.0 size=N/A time=00:03:00.80 bitrate=N/A speed=18.4x    frame= 4601 fps=445 q=-0.0 size=N/A time=00:03:11.90 bitrate=N/A speed=18.5x    frame= 4850 fps=447 q=-0.0 size=N/A time=00:03:22.28 bitrate=N/A speed=18.6x    frame= 5096 fps=448 q=-0.0 size=N/A time=00:03:32.54 bitrate=N/A speed=18.7x    frame= 5330 fps=448 q=-0.0 size=N/A time=00:03:42.30 bitrate=N/A speed=18.7x    frame= 5572 fps=449 q=-0.0 size=N/A time=00:03:52.39 bitrate=N/A speed=18.7x    frame= 5826 fps=451 q=-0.0 size=N/A time=00:04:02.99 bitrate=N/A speed=18.8x    frame= 6093 fps=453 q=-0.0 size=N/A time=00:04:14.12 bitrate=N/A speed=18.9x    frame= 6361 fps=456 q=-0.0 size=N/A time=00:04:25.30 bitrate=N/A speed=  19x    frame= 6633 fps=458 q=-0.0 size=N/A time=00:04:36.65 bitrate=N/A speed=19.1x    frame= 6901 fps=460 q=-0.0 size=N/A time=00:04:47.82 bitrate=N/A speed=19.2x    frame= 7164 fps=462 q=-0.0 size=N/A time=00:04:58.79 bitrate=N/A speed=19.3x    frame= 7431 fps=464 q=-0.0 size=N/A time=00:05:09.93 bitrate=N/A speed=19.3x    frame= 7687 fps=465 q=-0.0 size=N/A time=00:05:20.61 bitrate=N/A speed=19.4x    frame= 7962 fps=467 q=-0.0 size=N/A time=00:05:32.08 bitrate=N/A speed=19.5x    frame= 8220 fps=468 q=-0.0 size=N/A time=00:05:42.84 bitrate=N/A speed=19.5x    frame= 8477 fps=469 q=-0.0 size=N/A time=00:05:53.56 bitrate=N/A speed=19.6x    frame= 8759 fps=471 q=-0.0 size=N/A time=00:06:05.32 bitrate=N/A speed=19.6x    frame= 9024 fps=472 q=-0.0 size=N/A time=00:06:16.37 bitrate=N/A speed=19.7x    frame= 9289 fps=473 q=-0.0 size=N/A time=00:06:27.42 bitrate=N/A speed=19.7x    frame= 9551 fps=474 q=-0.0 size=N/A time=00:06:38.35 bitrate=N/A speed=19.8x    frame= 9811 fps=475 q=-0.0 size=N/A time=00:06:49.20 bitrate=N/A speed=19.8x    frame=10087 fps=476 q=-0.0 size=N/A time=00:07:00.71 bitrate=N/A speed=19.9x    frame=10351 fps=477 q=-0.0 size=N/A time=00:07:11.72 bitrate=N/A speed=19.9x    frame=10615 fps=478 q=-0.0 size=N/A time=00:07:22.73 bitrate=N/A speed=19.9x    frame=10825 fps=477 q=-0.0 size=N/A time=00:07:31.49 bitrate=N/A speed=19.9x    frame=11088 fps=477 q=-0.0 size=N/A time=00:07:42.46 bitrate=N/A speed=19.9x    frame=11359 fps=478 q=-0.0 size=N/A time=00:07:53.76 bitrate=N/A speed=19.9x    frame=11607 fps=478 q=-0.0 size=N/A time=00:08:04.10 bitrate=N/A speed=  20x    frame=11859 fps=478 q=-0.0 size=N/A time=00:08:14.61 bitrate=N/A speed=19.9x    frame=12110 fps=478 q=-0.0 size=N/A time=00:08:25.08 bitrate=N/A speed=  20x    frame=12390 fps=480 q=-0.0 size=N/A time=00:08:36.76 bitrate=N/A speed=  20x    frame=12635 fps=480 q=-0.0 size=N/A time=00:08:46.98 bitrate=N/A speed=  20x    frame=12893 fps=480 q=-0.0 size=N/A time=00:08:57.74 bitrate=N/A speed=  20x    frame=13159 fps=481 q=-0.0 size=N/A time=00:09:08.83 bitrate=N/A speed=20.1x    frame=13431 fps=482 q=-0.0 size=N/A time=00:09:20.18 bitrate=N/A speed=20.1x    frame=13671 fps=481 q=-0.0 size=N/A time=00:09:30.19 bitrate=N/A speed=20.1x    frame=13944 fps=482 q=-0.0 size=N/A time=00:09:41.58 bitrate=N/A speed=20.1x    frame=14224 fps=483 q=-0.0 size=N/A time=00:09:53.25 bitrate=N/A speed=20.1x    frame=14484 fps=484 q=-0.0 size=N/A time=00:10:04.10 bitrate=N/A speed=20.2x    frame=14723 fps=483 q=-0.0 size=N/A time=00:10:14.07 bitrate=N/A speed=20.2x    frame=14994 fps=484 q=-0.0 size=N/A time=00:10:25.37 bitrate=N/A speed=20.2x    frame=15254 fps=484 q=-0.0 size=N/A time=00:10:36.21 bitrate=N/A speed=20.2x    frame=15535 fps=485 q=-0.0 size=N/A time=00:10:47.93 bitrate=N/A speed=20.2x    frame=15800 fps=486 q=-0.0 size=N/A time=00:10:58.99 bitrate=N/A speed=20.3x    frame=16085 fps=487 q=-0.0 size=N/A time=00:11:10.87 bitrate=N/A speed=20.3x    frame=16356 fps=487 q=-0.0 size=N/A time=00:11:22.18 bitrate=N/A speed=20.3x    frame=16635 fps=488 q=-0.0 size=N/A time=00:11:33.81 bitrate=N/A speed=20.4x    frame=16891 fps=488 q=-0.0 size=N/A time=00:11:44.49 bitrate=N/A speed=20.4x    frame=17186 fps=489 q=-0.0 size=N/A time=00:11:56.79 bitrate=N/A speed=20.4x    frame=17457 fps=490 q=-0.0 size=N/A time=00:12:08.10 bitrate=N/A speed=20.4x    frame=17730 fps=490 q=-0.0 size=N/A time=00:12:19.48 bitrate=N/A speed=20.4x    frame=17974 fps=490 q=-0.0 size=N/A time=00:12:29.66 bitrate=N/A speed=20.4x    frame=18226 fps=490 q=-0.0 size=N/A time=00:12:40.17 bitrate=N/A speed=20.4x    frame=18494 fps=491 q=-0.0 size=N/A time=00:12:51.35 bitrate=N/A speed=20.5x    frame=18774 fps=491 q=-0.0 size=N/A time=00:13:03.03 bitrate=N/A speed=20.5x    frame=19036 fps=491 q=-0.0 size=N/A time=00:13:13.95 bitrate=N/A speed=20.5x    frame=19291 fps=492 q=-0.0 size=N/A time=00:13:24.59 bitrate=N/A speed=20.5x    frame=19570 fps=492 q=-0.0 size=N/A time=00:13:36.23 bitrate=N/A speed=20.5x    frame=19825 fps=492 q=-0.0 size=N/A time=00:13:46.86 bitrate=N/A speed=20.5x    frame=20058 fps=492 q=-0.0 size=N/A time=00:13:56.58 bitrate=N/A speed=20.5x    frame=20300 fps=491 q=-0.0 size=N/A time=00:14:06.67 bitrate=N/A speed=20.5x    frame=20547 fps=491 q=-0.0 size=N/A time=00:14:16.98 bitrate=N/A speed=20.5x    frame=20811 fps=492 q=-0.0 size=N/A time=00:14:27.99 bitrate=N/A speed=20.5x    frame=21063 fps=491 q=-0.0 size=N/A time=00:14:38.50 bitrate=N/A speed=20.5x    frame=21341 fps=492 q=-0.0 size=N/A time=00:14:50.09 bitrate=N/A speed=20.5x    frame=21598 fps=492 q=-0.0 size=N/A time=00:15:00.81 bitrate=N/A speed=20.5x    frame=21852 fps=492 q=-0.0 size=N/A time=00:15:11.41 bitrate=N/A speed=20.5x    frame=22120 fps=492 q=-0.0 size=N/A time=00:15:22.58 bitrate=N/A speed=20.5x    frame=22398 fps=493 q=-0.0 size=N/A time=00:15:34.18 bitrate=N/A speed=20.6x    frame=22670 fps=493 q=-0.0 size=N/A time=00:15:45.52 bitrate=N/A speed=20.6x    frame=22950 fps=494 q=-0.0 size=N/A time=00:15:57.20 bitrate=N/A speed=20.6x    frame=23233 fps=494 q=-0.0 size=N/A time=00:16:09.00 bitrate=N/A speed=20.6x    frame=23468 fps=494 q=-0.0 size=N/A time=00:16:18.81 bitrate=N/A speed=20.6x    frame=23722 fps=494 q=-0.0 size=N/A time=00:16:29.40 bitrate=N/A speed=20.6x    frame=23985 fps=494 q=-0.0 size=N/A time=00:16:40.37 bitrate=N/A speed=20.6x    frame=24248 fps=494 q=-0.0 size=N/A time=00:16:51.34 bitrate=N/A speed=20.6x    frame=24500 fps=494 q=-0.0 size=N/A time=00:17:01.85 bitrate=N/A speed=20.6x    frame=24765 fps=494 q=-0.0 size=N/A time=00:17:12.90 bitrate=N/A speed=20.6x    frame=25000 fps=494 q=-0.0 size=N/A time=00:17:22.70 bitrate=N/A speed=20.6x    frame=25256 fps=494 q=-0.0 size=N/A time=00:17:33.38 bitrate=N/A speed=20.6x    frame=25490 fps=494 q=-0.0 size=N/A time=00:17:43.14 bitrate=N/A speed=20.6x    frame=25723 fps=493 q=-0.0 size=N/A time=00:17:52.86 bitrate=N/A speed=20.6x    frame=25953 fps=493 q=-0.0 size=N/A time=00:18:02.45 bitrate=N/A speed=20.6x    frame=26198 fps=493 q=-0.0 size=N/A time=00:18:12.67 bitrate=N/A speed=20.5x    frame=26427 fps=492 q=-0.0 size=N/A time=00:18:22.22 bitrate=N/A speed=20.5x    frame=26647 fps=492 q=-0.0 size=N/A time=00:18:31.40 bitrate=N/A speed=20.5x    frame=26861 fps=491 q=-0.0 size=N/A time=00:18:40.32 bitrate=N/A speed=20.5x    frame=27117 fps=491 q=-0.0 size=N/A time=00:18:51.00 bitrate=N/A speed=20.5x    frame=27390 fps=491 q=-0.0 size=N/A time=00:19:02.39 bitrate=N/A speed=20.5x    frame=27666 fps=492 q=-0.0 size=N/A time=00:19:13.90 bitrate=N/A speed=20.5x    frame=27937 fps=492 q=-0.0 size=N/A time=00:19:25.20 bitrate=N/A speed=20.5x    frame=28177 fps=492 q=-0.0 size=N/A time=00:19:35.21 bitrate=N/A speed=20.5x    frame=28394 fps=491 q=-0.0 size=N/A time=00:19:44.26 bitrate=N/A speed=20.5x    frame=28650 fps=491 q=-0.0 size=N/A time=00:19:54.94 bitrate=N/A speed=20.5x    frame=28933 fps=492 q=-0.0 size=N/A time=00:20:06.74 bitrate=N/A speed=20.5x    frame=29211 fps=492 q=-0.0 size=N/A time=00:20:18.34 bitrate=N/A speed=20.5x    frame=29488 fps=492 q=-0.0 size=N/A time=00:20:29.89 bitrate=N/A speed=20.5x    frame=29766 fps=493 q=-0.0 size=N/A time=00:20:41.49 bitrate=N/A speed=20.6x    frame=30045 fps=493 q=-0.0 size=N/A time=00:20:53.12 bitrate=N/A speed=20.6x    frame=30318 fps=494 q=-0.0 size=N/A time=00:21:04.51 bitrate=N/A speed=20.6x    frame=30560 fps=493 q=-0.0 size=N/A time=00:21:14.60 bitrate=N/A speed=20.6x    frame=30762 fps=493 q=-0.0 size=N/A time=00:21:23.03 bitrate=N/A speed=20.5x    frame=30974 fps=492 q=-0.0 size=N/A time=00:21:31.87 bitrate=N/A speed=20.5x    frame=31247 fps=492 q=-0.0 size=N/A time=00:21:43.26 bitrate=N/A speed=20.5x    frame=31425 fps=491 q=-0.0 size=N/A time=00:21:50.68 bitrate=N/A speed=20.5x    frame=31593 fps=490 q=-0.0 size=N/A time=00:21:57.69 bitrate=N/A speed=20.4x    frame=31751 fps=488 q=-0.0 size=N/A time=00:22:04.28 bitrate=N/A speed=20.4x    frame=31927 fps=487 q=-0.0 size=N/A time=00:22:11.62 bitrate=N/A speed=20.3x    frame=32081 fps=486 q=-0.0 size=N/A time=00:22:18.04 bitrate=N/A speed=20.3x    frame=32232 fps=484 q=-0.0 size=N/A time=00:22:24.34 bitrate=N/A speed=20.2x    frame=32387 fps=483 q=-0.0 size=N/A time=00:22:30.80 bitrate=N/A speed=20.1x    frame=32534 fps=481 q=-0.0 size=N/A time=00:22:36.93 bitrate=N/A speed=20.1x    frame=32677 fps=480 q=-0.0 size=N/A time=00:22:42.90 bitrate=N/A speed=  20x    frame=32863 fps=479 q=-0.0 size=N/A time=00:22:50.66 bitrate=N/A speed=  20x    frame=33074 fps=478 q=-0.0 size=N/A time=00:22:59.46 bitrate=N/A speed=19.9x    frame=33287 fps=478 q=-0.0 size=N/A time=00:23:08.34 bitrate=N/A speed=19.9x    [Parsed_ssim_10 @ 000002947bd03380] SSIM Y:0.992648 (21.336031) U:0.994133 (22.316178) V:0.994495 (22.592556) All:0.993204 (21.677168)
[out#0/null @ 000002946f5e06c0] video:14363KiB audio:261432KiB subtitle:0KiB other streams:0KiB global headers:0KiB muxing overhead: unknown
frame=33427 fps=478 q=-0.0 Lsize=N/A time=00:23:14.18 bitrate=N/A speed=19.9x    
